<?xml version="1.0" encoding="UTF-8"?>
<svg width="36px" height="32.4px" viewBox="0 0 36 32.4" version="1.1" xmlns="http://www.w3.org/2000/svg" xmlns:xlink="http://www.w3.org/1999/xlink">
    <title>1BD6C90B-E34A-48A7-9C4D-FC1ADB9B07CC</title>
    <g id="Page-1" stroke="none" stroke-width="1" fill="none" fill-rule="evenodd">
        <g id="dahboard-live-status" transform="translate(-217.000000, -652.000000)" fill="#07C1F4" fill-rule="nonzero">
            <g id="Group-2" transform="translate(111.000000, 482.000000)">
                <g id="Group-40" transform="translate(93.000000, 156.000000)">
                    <g id="home-rts-icon" transform="translate(13.000000, 14.000000)">
                        <path d="M18,0 C18,0 6.8652,9.612 0.6426,14.8176 C0.2772,15.1488 0,15.6312 0,16.2 C0,17.1954 0.8046,18 1.8,18 L5.4,18 L5.4,30.6 C5.4,31.5954 6.2046,32.4 7.2,32.4 L12.6,32.4 C13.5954,32.4 14.4,31.5936 14.4,30.6 L14.4,23.4 L21.6,23.4 L21.6,30.6 C21.6,31.5936 22.4046,32.4 23.4,32.4 L28.8,32.4 C29.7954,32.4 30.6,31.5954 30.6,30.6 L30.6,18 L34.2,18 C35.1954,18 36,17.1954 36,16.2 C36,15.6312 35.7228,15.1488 35.3106,14.8176 C29.1312,9.612 18,0 18,0 Z" id="Path"></path>
                    </g>
                </g>
            </g>
        </g>
    </g>
</svg>