<?xml version="1.0" encoding="UTF-8"?>
<svg width="18px" height="30px" viewBox="0 0 18 30" version="1.1" xmlns="http://www.w3.org/2000/svg" xmlns:xlink="http://www.w3.org/1999/xlink">
    <title>0DFFF6E0-6700-4015-8A44-ADA6D1D2AA7E</title>
    <g id="Page-1" stroke="none" stroke-width="1" fill="none" fill-rule="evenodd">
        <g id="dahboard-live-status" transform="translate(-525.000000, -721.000000)" fill="#0FB280" fill-rule="nonzero">
            <g id="Group-2" transform="translate(111.000000, 482.000000)">
                <g id="Group-41" transform="translate(392.000000, 225.000000)">
                    <g id="battery-rts-icon" transform="translate(31.000000, 29.000000) rotate(-90.000000) translate(-31.000000, -29.000000) translate(16.000000, 20.000000)">
                        <path d="M27,6 L27,3 C27,1.34314575 25.6568542,0 24,0 L3,0 C1.34314575,0 0,1.34314575 0,3 L0,15 C0,16.6568542 1.34314575,18 3,18 L24,18 C25.6568542,18 27,16.6568542 27,15 L27,12 L30,12 L30,6 L27,6 Z M10.5,16.5 L13.5,10.665 L7.5,9 L16.5,1.5 L15,7.335 L21,9 L10.5,16.5 Z" id="Shape"></path>
                    </g>
                </g>
            </g>
        </g>
    </g>
</svg>