<?xml version="1.0" encoding="UTF-8"?>
<svg width="32px" height="32px" viewBox="0 0 32 32" version="1.1" xmlns="http://www.w3.org/2000/svg" xmlns:xlink="http://www.w3.org/1999/xlink">
    <title>71C4010A-1BA7-4F51-813D-4BC66CC643AB</title>
    <g id="Page-1" stroke="none" stroke-width="1" fill="none" fill-rule="evenodd">
        <g id="dahboard-live-status" transform="translate(-814.000000, -653.000000)" fill="#8364A6" fill-rule="nonzero">
            <g id="Group-2" transform="translate(111.000000, 482.000000)">
                <g id="Group-42" transform="translate(688.000000, 156.000000)">
                    <g id="grid-rts-icon" transform="translate(15.000000, 15.000000)">
                        <path d="M21.28,0 L10.72,0 L0,7.136 L0,12.8 L3.2,12.8 L3.2,9.6 L9.6,9.6 L9.6,14.064 L3.2,28.464 L3.2,32 L6.4,32 L6.4,29.744 L16,24.512 L25.6,29.744 L25.6,32 L28.8,32 L28.8,28.464 L22.4,14.064 L22.4,9.6 L28.8,9.6 L28.8,12.8 L32,12.8 L32,7.136 L21.28,0 Z M19.2,3.2 L19.2,6.4 L12.8,6.4 L12.8,3.2 L19.2,3.2 Z M6.88,6.4 L9.6,4.592 L9.6,6.4 L6.88,6.4 Z M19.68,16 L20.8,18.272 L16,20.8 L11.2,18.272 L12.24,16 L19.68,16 Z M8.176,25.136 L9.92,21.2 L12.656,22.688 L8.176,25.136 Z M22.064,21.2 L23.808,25.136 L19.328,22.688 L22.064,21.2 Z M19.2,12.8 L12.8,12.8 L12.8,9.6 L19.2,9.6 L19.2,12.8 Z M22.4,4.592 L25.12,6.4 L22.4,6.4 L22.4,4.592 Z" id="Shape"></path>
                    </g>
                </g>
            </g>
        </g>
    </g>
</svg>