<?xml version="1.0" encoding="UTF-8"?>
<svg width="32px" height="28.952381px" viewBox="0 0 32 28.952381" version="1.1" xmlns="http://www.w3.org/2000/svg" xmlns:xlink="http://www.w3.org/1999/xlink">
    <title>BEDE64A7-954B-4068-9EFE-2C93732C286B</title>
    <g id="Page-1" stroke="none" stroke-width="1" fill="none" fill-rule="evenodd">
        <g id="dahboard-live-status" transform="translate(-333.000000, -560.000000)" fill="#CEA90F" fill-rule="nonzero">
            <g id="Group-2" transform="translate(111.000000, 482.000000)">
                <g id="Group-34" transform="translate(207.000000, 61.000000)">
                    <path d="M24.0131032,24.1189252 L23.3476295,24.7587211 C23.1638243,24.9352324 22.865961,24.9352324 22.6821558,24.7587211 L20.0204762,22.1995374 C19.836671,22.0230261 19.836671,21.7364544 20.0204762,21.5599483 L20.6859499,20.9201524 C20.8695453,20.7434395 21.1676184,20.7434395 21.3512085,20.9201524 L24.0131032,23.4791293 C24.1966986,23.6558422 24.1966986,23.9422122 24.0131032,24.1189252 Z M31.4707104,21.5238095 L30.5296365,21.5238095 C30.2697925,21.5238095 30.0590995,21.3212463 30.0590995,21.0714286 L30.0590995,17.452381 C30.0590995,17.2025633 30.2697925,17 30.5296365,17 L31.4707104,17 C31.7305543,17 31.9412473,17.2025633 31.9412473,17.452381 L31.9412473,21.0714286 C31.9412473,21.3212463 31.7305543,21.5238095 31.4707104,21.5238095 Z M38.6524485,24.7587211 L37.9869748,24.1189252 C37.8033794,23.9422122 37.8033794,23.6558422 37.9869748,23.4791293 L40.6488695,20.9201524 C40.8324649,20.7434395 41.130538,20.7434395 41.3141281,20.9201524 L41.9796017,21.5599483 C42.1634069,21.7364596 42.1634069,22.0230313 41.9796017,22.1995374 L39.3179222,24.7587211 C39.134117,24.9352324 38.8362536,24.9352324 38.6524485,24.7587211 L38.6524485,24.7587211 Z M41.3517173,31.9285714 L41.3517173,31.0238095 C41.3517173,30.7739918 41.5624102,30.5714286 41.8222542,30.5714286 L45.5865497,30.5714286 C45.8463937,30.5714286 46.0570867,30.7739918 46.0570867,31.0238095 L46.0570867,31.9285714 C46.0570867,32.1783891 45.8463937,32.3809524 45.5865497,32.3809524 L41.8222542,32.3809524 C41.5624102,32.3809524 41.3517173,32.1783891 41.3517173,31.9285714 Z M34.3221642,40.0714286 L35.9745286,45.952381 L26.0249578,45.952381 L27.6773222,40.0714286 L34.3221642,40.0714286 Z M34.6193984,34.1904762 L38.5284042,34.1904762 C38.8294241,34.1904762 39.112354,34.3290185 39.2894372,34.563083 L42.0874381,38.2619048 L35.7634216,38.2619048 L34.6193984,34.1904762 Z M32.6698159,34.1904762 L33.8137854,38.2619048 L28.1856258,38.2619048 L29.3295952,34.1904762 L32.6698159,34.1904762 Z M27.3802816,34.1904762 L26.2363122,38.2619048 L19.9122957,38.2619048 L22.7102966,34.563083 C22.8873798,34.3290185 23.1703312,34.1904762 23.4713296,34.1904762 L27.3802816,34.1904762 Z M37.9240734,45.952381 L36.271709,40.0714286 L43.4566737,40.0714286 L46.8182971,44.5154639 C47.2707708,45.113434 46.8262796,45.952381 46.0572641,45.952381 L37.9240734,45.952381 Z M24.0757679,45.952381 L15.9427385,45.952381 C15.173693,45.952381 14.7292372,45.113434 15.1817055,44.5154639 L18.543329,40.0714286 L25.7282937,40.0714286 L24.0757679,45.952381 Z M39.4695856,31.4761905 L39.4695856,31.9285714 C39.4695856,32.1783891 39.2588926,32.3809524 38.9990487,32.3809524 L38.0579748,32.3809524 C37.7981308,32.3809524 37.5874379,32.1783891 37.5874379,31.9285714 L37.5874379,31.4761905 C37.5874379,27.9783293 34.6381661,25.1428571 30.9999207,25.1428571 C27.3616753,25.1428571 24.4124035,27.9783293 24.4124035,31.4761905 L24.4124035,31.9285714 C24.4124035,32.1783891 24.2017105,32.3809524 23.9418665,32.3809524 L23.0007927,32.3809524 C22.7409487,32.3809524 22.5302557,32.1783891 22.5302557,31.9285714 L22.5302557,31.4761905 C22.5302557,26.9790585 26.3222995,23.3333333 30.9999207,23.3333333 C35.6775418,23.3333333 39.4695856,26.9790585 39.4695856,31.4761905 Z M20.648108,31.0238095 L20.648108,31.9285714 C20.648108,32.1783891 20.437415,32.3809524 20.177571,32.3809524 L16.4132755,32.3809524 C16.1534315,32.3809524 15.9427385,32.1783891 15.9427385,31.9285714 L15.9427385,31.0238095 C15.9427385,30.7739918 16.1534315,30.5714286 16.4132755,30.5714286 L20.177571,30.5714286 C20.437415,30.5714286 20.648108,30.7739918 20.648108,31.0238095 Z" id="solar-rts-icon"></path>
                </g>
            </g>
        </g>
    </g>
</svg>